<?xml version="1.0" encoding="UTF-8"?>
<svg id="Layer_1" data-name="Layer 1" xmlns="http://www.w3.org/2000/svg" viewBox="0 0 894 129">
  <defs>
    <style>
      .cls-1 {
        fill: #000;
      }

      .cls-1, .cls-2 {
        stroke-width: 0px;
      }

      .cls-2 {
        fill: #fff;
      }
    </style>
  </defs>
  <path class="cls-2" d="M0,0c298.08,0,596.04,0,894,0v128.99c-297.96,0-595.92,0-894,0V0ZM762.89,45.01c.57-5.87-2.51-6.18-5.75-6.21-4.83-.05-9.67.09-14.49-.11-3.93-.16-5.38,1.52-5.21,5.35.18,4.16-.01,8.33-.02,12.49-.03,21.16.02,42.31-.12,63.47-.02,3.77,1.02,5.46,5.11,5.28,6.15-.27,12.33-.2,18.48.07,4.06.18,5.73-1.15,5.52-5.38-.29-5.82-.17-11.66-.09-17.49.11-8.82.08-17.65.59-26.45.37-6.34,3.85-10.88,9.96-13.13,12.07-4.44,22.56,2.41,22.88,15.35.34,13.99.19,27.98.11,41.98-.02,3.57,1.19,5.12,4.95,5.02,6.66-.19,13.33-.18,19.99.08,3.81.15,5.14-1.42,4.81-4.99-.14-1.49-.08-3-.07-4.5.11-12.82-.18-25.67.48-38.46.52-10.13,7.11-15.75,16.6-15.58,9.52.17,15.39,6.04,16.07,16.16.14,2.16.14,4.33.14,6.49,0,11.99.03,23.99-.04,35.98-.02,2.85.44,4.87,4,4.83,7.16-.08,14.33,0,21.49.12,2.8.05,3.88-1.23,3.85-3.92-.15-18.15.2-36.33-.54-54.46-.57-13.84-7.46-24.31-21.07-28.66-15.56-4.97-30.67-4.02-43.97,6.69-3.09,2.49-5.06,2.55-7.98-.31-5.55-5.45-12.68-7.82-20.3-8.68-12.28-1.38-23.94.19-35.4,8.98ZM247.68,122.51c18.1,7.07,32.57,4.37,42.61-10.65,12.11-18.13,11.53-37.7,2.14-56.57-8.78-17.64-25.88-22.25-43.36-13.2-.36.19-.91.02-1.75.02,0-8.75-.12-17.37.06-25.99.07-3.64-1.19-5.14-4.89-5.03-5.32.16-10.67.17-15.98-.11-3.86-.2-5.27,1-5.18,5.07.28,11.99.21,23.98.16,35.97-.1,22.49-.24,44.97-.5,67.45-.05,3.86.81,5.97,5.24,5.71,5.15-.31,10.34.11,15.48-.26,2.04-.15,4-1.57,5.99-2.41ZM365.39,43.01c.54-4.43-3.19-4.22-6.88-4.19-4.67.04-9.33.03-14-.05-3.3-.06-4.78,1.22-4.79,4.73-.05,25.67-.21,51.33-.43,77-.03,3.34,1,4.87,4.57,4.78,6.33-.16,12.67-.15,19,.11,3.87.16,5.31-1.16,5.23-5.14-.23-12-.19-24-.12-36,.02-3.15.18-6.36.86-9.42,1.56-7.02,6.68-11.4,13.15-11.73,6.98-.36,13.15,3.7,15.2,10.59.98,3.3,1.3,6.88,1.32,10.35.09,12-.07,24-.17,36-.02,2.9.16,5.33,4.11,5.27,6.66-.11,13.33-.02,20,.09,2.81.05,3.86-1.25,3.84-3.93-.17-17.66.38-35.37-.62-52.98-1.25-21.93-16.08-34.32-37.98-32.01-7.36.77-14.45,4.16-22.28,6.54ZM160.22,90.96c2.36,0,4.14,0,5.93,0,14.81.05,29.63-.01,44.44.2,4.4.06,6.18-1.76,5.78-5.92-.59-6.11-.63-12.37-2.06-18.29-3.92-16.28-16.32-27.1-32.78-29.46-20.64-2.96-40.35,10.2-47.29,32.41-5.13,16.42-3.73,32.47,8.81,45.19,12.31,12.48,27.93,14.66,44.48,9.88,12.41-3.59,20.14-12.47,25.39-23.8.92-1.98,1.78-5.02-1.55-4.93-9.44.27-19.13-2.68-28.23,2.83-9.01,5.45-19.76,1.82-22.92-8.11ZM729.35,66.62c.14,0,.27,0,.41,0,0-7.16,0-14.33,0-21.49,0-5.98-.43-6.4-6.62-6.44-4.66-.03-9.33-.08-13.99-.16-6.39-.1-6.57.15-6.6,6.76-.06,12.49.11,25-.42,37.47-.48,11.3-5.97,16.55-15.91,16.41-10.15-.15-15.3-5.77-15.72-17.24-.1-2.83-.03-5.66-.02-8.5.05-10,.08-19.99.17-29.99.02-2.54-.18-4.82-3.51-4.8-7.16.04-14.34-.06-21.48.37-1.24.07-3.36,2.42-3.36,3.72-.02,17.15-.46,34.35.7,51.43,1.1,16.19,11.63,27.16,27.37,31.13,9.76,2.46,19.52,2.06,29.18-.43,17.27-4.45,28.41-17.5,29.7-35.27.55-7.62.09-15.31.09-22.97ZM493.9,42.82c-4.77-1.63-8.79-4.09-12.87-4.2-14.97-.42-29.97-.15-44.95.15-1.33.03-3.76,2.11-3.75,3.24.03,16.14-.88,32.43.96,48.39,2.96,25.75,24.9,41.04,48.7,35.69,5.21-1.17,9.86-3.83,15.98-1.4,4.63,1.84,10.52.36,15.85.58,3.24.14,4.44-1.13,4.43-4.35-.08-25.82-.11-51.64-.04-77.46,0-3.77-1.72-5.01-5.19-4.9-3.83.12-7.67.22-11.49.03-3.59-.19-6.76,0-7.61,4.23ZM594.85,68.84c.18-.49.77-1.64,1.02-2.86,1.2-6.04,2.07-12.16,3.52-18.14,1.14-4.72-.68-7.37-4.86-8.91-12.95-4.77-25.17-3.93-36.3,4.88-1.36,1.08-2.73,2.14-4.33,3.4q-1.83-8.56-10.34-8.51c-4.16.02-8.33.02-12.49-.13-3.28-.12-4.88,1-4.88,4.57-.01,25.83-.11,51.65-.28,77.47-.02,3.39,1.13,4.83,4.64,4.73,5.83-.16,11.68-.27,17.49.12,4.73.31,6.39-1.08,6.26-6.07-.27-11.15-.41-22.35.39-33.46.95-13.26,10.06-21.27,23.39-20.76,5.46.21,10.84,2.31,16.79,3.68ZM92.16,51.14c-1.27,1.44-1.86,1.86-2.1,2.42-4.26,10.31-8.56,20.62-12.63,31.01-.61,1.57-.52,3.72,0,5.36,2.82,9.07,5.69,18.13,8.91,27.06,2.06,5.71,7.4,8.79,13.83,8.75,6.58-.04,11.23-3.04,13.35-9.26,9.42-27.59,18.78-55.2,28.02-82.85,2.26-6.77-1.32-12.7-8.26-14.51-8.92-2.32-15.87,1.66-19.1,11.51-3.84,11.71-7.24,23.56-10.92,35.32-.69,2.2-1.79,4.28-2.71,6.42-.46-.09-.93-.18-1.39-.26-2.23-6.68-4.47-13.36-7.01-20.97ZM49.4,56.38c-.49-.03-.99-.07-1.48-.1-1.96,5.24-3.93,10.47-5.89,15.71-.45-.08-.89-.16-1.34-.23-.62-2.02-1.25-4.03-1.85-6.06-3.79-12.93-7.15-26-11.5-38.74-2.63-7.7-10.62-10.38-18.16-7.36C2.84,22.14.54,28,2.92,35.87c7.96,26.27,15.94,52.54,23.96,78.79,2.15,7.06,6.47,10.55,13.21,10.92,6.7.38,11.38-2.55,14.08-9.61,3.21-8.39,6.02-16.93,8.89-25.45.4-1.18.64-2.78.17-3.84-4.51-10.15-9.2-20.22-13.83-30.31ZM607.05,82.02h-.15c0,12.65.08,25.31-.05,37.96-.04,3.74,1.01,5.47,5.13,5.28,6.15-.28,12.32-.14,18.48.04,3.24.09,4.42-1.18,4.41-4.39-.08-25.81-.09-51.62-.03-77.42,0-3.78-1.79-4.95-5.24-4.87-5.66.13-11.33.3-16.98.04-4.48-.2-5.71,1.67-5.64,5.9.21,12.48.07,24.97.07,37.46ZM331.28,81.98s-.05,0-.08,0c0-12.48-.19-24.97.1-37.44.11-4.74-1.67-6.26-6.12-5.93-3.64.27-7.32.27-10.98.19-12.42-.3-10.21-.1-10.26,9.95-.1,22.97-.08,45.93-.12,68.9q-.01,7.49,7.23,7.5c5.16,0,10.33-.18,15.47.15,3.85.25,4.86-1.24,4.81-4.87-.16-12.81-.06-25.63-.06-38.44ZM69.23,71.29c1.03-.68,1.44-.8,1.54-1.04,4.69-12.09,9.56-24.12,13.91-36.33,2.02-5.67-1.48-11.94-7.14-14.23-5.7-2.31-11.35-2-15.89,2.23-5.31,4.95-8.07,12.06-5.95,18.59,3.4,10.5,8.83,20.35,13.53,30.77ZM603.92,17.48c.03,8.69,7.26,15.68,16.09,15.56,8.94-.12,16.21-7.72,16.15-16.91-.05-8.65-6.92-15.26-15.76-15.17-9.15.09-16.51,7.47-16.48,16.52ZM301.46,17.39c0,8.69,6.77,15.49,15.52,15.57,8.8.08,16.61-7.77,16.55-16.65-.06-8.57-7-15.41-15.72-15.49-9.18-.08-16.35,7.18-16.35,16.57Z"/>
  <path class="cls-1" d="M762.89,45.01c11.46-8.79,23.12-10.36,35.4-8.98,7.62.86,14.75,3.23,20.3,8.68,2.92,2.86,4.89,2.8,7.98.31,13.29-10.71,28.41-11.66,43.97-6.69,13.61,4.35,20.5,14.82,21.07,28.66.74,18.13.38,36.3.54,54.46.02,2.69-1.06,3.96-3.85,3.92-7.16-.12-14.33-.2-21.49-.12-3.56.04-4.02-1.98-4-4.83.06-11.99.04-23.99.04-35.98,0-2.16,0-4.34-.14-6.49-.68-10.12-6.55-16-16.07-16.16-9.49-.17-16.08,5.45-16.6,15.58-.66,12.79-.37,25.64-.48,38.46-.01,1.5-.07,3.01.07,4.5.33,3.58-1,5.14-4.81,4.99-6.65-.25-13.33-.27-19.99-.08-3.76.11-4.97-1.45-4.95-5.02.07-13.99.23-27.99-.11-41.98-.32-12.94-10.81-19.79-22.88-15.35-6.11,2.25-9.59,6.79-9.96,13.13-.51,8.8-.48,17.63-.59,26.45-.07,5.83-.19,11.67.09,17.49.21,4.22-1.46,5.56-5.52,5.38-6.15-.27-12.33-.34-18.48-.07-4.09.18-5.13-1.52-5.11-5.28.13-21.16.09-42.31.12-63.47,0-4.16.2-8.34.02-12.49-.16-3.82,1.28-5.51,5.21-5.35,4.82.2,9.66.06,14.49.11,3.24.03,6.32.34,5.75,6.21Z"/>
  <path class="cls-1" d="M247.68,122.51c-1.99.84-3.95,2.26-5.99,2.41-5.14.37-10.33-.05-15.48.26-4.43.27-5.28-1.84-5.24-5.71.26-22.48.4-44.97.5-67.45.06-11.99.12-23.99-.16-35.97-.09-4.07,1.32-5.27,5.18-5.07,5.32.28,10.66.27,15.98.11,3.71-.11,4.97,1.39,4.89,5.03-.18,8.62-.06,17.24-.06,25.99.84,0,1.39.16,1.75-.02,17.48-9.05,34.58-4.44,43.36,13.2,9.39,18.88,9.97,38.44-2.14,56.57-10.04,15.03-24.51,17.72-42.61,10.65ZM245.46,82.26c-.03,9.08,5.92,15.28,14.77,15.39,8.95.12,15.61-6.73,15.51-15.92-.09-8.34-6.63-14.64-15.14-14.58-8.74.05-15.12,6.41-15.15,15.11Z"/>
  <path class="cls-1" d="M365.39,43.01c7.83-2.38,14.92-5.77,22.28-6.54,21.91-2.31,36.73,10.08,37.98,32.01,1,17.62.45,35.32.62,52.98.03,2.68-1.03,3.98-3.84,3.93-6.66-.11-13.33-.21-20-.09-3.96.07-4.14-2.37-4.11-5.27.1-12,.26-24,.17-36-.02-3.46-.34-7.05-1.32-10.35-2.04-6.9-8.22-10.95-15.2-10.59-6.47.33-11.59,4.71-13.15,11.73-.68,3.06-.84,6.27-.86,9.42-.07,12-.1,24,.12,36,.08,3.98-1.37,5.29-5.23,5.14-6.32-.25-12.67-.27-19-.11-3.57.09-4.6-1.44-4.57-4.78.22-25.67.37-51.33.43-77,0-3.51,1.49-4.79,4.79-4.73,4.67.09,9.33.09,14,.05,3.69-.03,7.43-.23,6.88,4.19Z"/>
  <path class="cls-1" d="M160.22,90.96c3.16,9.93,13.91,13.56,22.92,8.11,9.1-5.51,18.79-2.56,28.23-2.83,3.33-.09,2.47,2.95,1.55,4.93-5.25,11.34-12.99,20.21-25.39,23.8-16.55,4.78-32.16,2.6-44.48-9.88-12.55-12.72-13.94-28.77-8.81-45.19,6.94-22.2,26.65-35.37,47.29-32.41,16.46,2.36,28.86,13.19,32.78,29.46,1.43,5.92,1.47,12.18,2.06,18.29.4,4.16-1.38,5.98-5.78,5.92-14.81-.22-29.62-.16-44.44-.2-1.78,0-3.57,0-5.93,0ZM159.9,75.75c8.88,0,17.32.05,25.75-.02,5.75-.04,6.95-2.05,4.63-7.46-2.46-5.73-8.75-8.55-16.47-7.37-7.62,1.16-13.09,6.52-13.91,14.85Z"/>
  <path class="cls-1" d="M729.35,66.62c0,7.66.46,15.35-.09,22.97-1.29,17.77-12.43,30.82-29.7,35.27-9.66,2.49-19.42,2.89-29.18.43-15.74-3.97-26.27-14.94-27.37-31.13-1.16-17.08-.72-34.28-.7-51.43,0-1.3,2.12-3.65,3.36-3.72,7.14-.42,14.32-.33,21.48-.37,3.32-.02,3.53,2.25,3.51,4.8-.09,10-.12,19.99-.17,29.99-.01,2.83-.09,5.67.02,8.5.42,11.47,5.57,17.1,15.72,17.24,9.94.14,15.43-5.11,15.91-16.41.53-12.48.36-24.98.42-37.47.03-6.61.21-6.86,6.6-6.76,4.66.07,9.33.12,13.99.16,6.19.05,6.62.46,6.62,6.44,0,7.16,0,14.33,0,21.49-.14,0-.27,0-.41,0Z"/>
  <path class="cls-1" d="M493.9,42.82c.85-4.23,4.02-4.42,7.61-4.23,3.82.2,7.66.09,11.49-.03,3.47-.11,5.2,1.13,5.19,4.9-.06,25.82-.04,51.64.04,77.46.01,3.22-1.19,4.48-4.43,4.35-5.32-.22-11.22,1.26-15.85-.58-6.12-2.43-10.77.23-15.98,1.4-23.8,5.34-45.74-9.95-48.7-35.69-1.83-15.96-.93-32.25-.96-48.39,0-1.13,2.43-3.21,3.75-3.24,14.98-.29,29.98-.57,44.95-.15,4.08.12,8.1,2.57,12.87,4.2ZM450.77,85.11c-.02,14.55,9.44,24.8,22.96,24.87,14.01.08,24.3-10.09,24.44-24.15.14-13.59-10.22-23.9-24.05-23.93-13.7-.03-23.34,9.54-23.36,23.2ZM466.15,39.64c-1.89.31-2.85.2-3.5.61-7.45,4.63-14.9,9.26-22.17,14.16-.67.45-.65,3.48.08,4.1,1.24,1.05,3.76,2.06,4.94,1.47,7.56-3.8,15-7.89,22.25-12.27,1.46-.89,2.92-3.71,2.54-5.17-.37-1.42-3.09-2.23-4.13-2.89Z"/>
  <path class="cls-1" d="M594.85,68.84c-5.95-1.36-11.33-3.46-16.79-3.68-13.32-.52-22.44,7.5-23.39,20.76-.8,11.11-.66,22.31-.39,33.46.12,4.99-1.53,6.38-6.26,6.07-5.81-.38-11.66-.28-17.49-.12-3.51.1-4.66-1.34-4.64-4.73.17-25.82.27-51.65.28-77.47,0-3.57,1.61-4.69,4.88-4.57,4.16.15,8.33.15,12.49.13q8.51-.03,10.34,8.51c1.6-1.26,2.97-2.33,4.33-3.4,11.14-8.81,23.35-9.64,36.3-4.88,4.17,1.54,6,4.19,4.86,8.91-1.45,5.98-2.32,12.1-3.52,18.14-.24,1.22-.84,2.37-1.02,2.86Z"/>
  <path class="cls-1" d="M92.16,51.14c2.55,7.61,4.78,14.29,7.01,20.97.46.09.93.18,1.39.26.91-2.14,2.02-4.21,2.71-6.42,3.68-11.76,7.08-23.61,10.92-35.32,3.23-9.85,10.18-13.83,19.1-11.51,6.94,1.8,10.52,7.74,8.26,14.51-9.25,27.65-18.6,55.26-28.02,82.85-2.12,6.22-6.78,9.23-13.35,9.26-6.43.04-11.77-3.04-13.83-8.75-3.22-8.93-6.09-17.99-8.91-27.06-.51-1.65-.6-3.8,0-5.36,4.06-10.39,8.36-20.69,12.63-31.01.23-.57.83-.98,2.1-2.42Z"/>
  <path class="cls-1" d="M49.4,56.38c4.63,10.09,9.32,20.17,13.83,30.31.47,1.06.23,2.66-.17,3.84-2.87,8.51-5.68,17.06-8.89,25.45-2.7,7.06-7.38,9.98-14.08,9.61-6.74-.38-11.05-3.86-13.21-10.92C18.87,88.41,10.88,62.14,2.92,35.87c-2.39-7.87-.08-13.73,6.26-16.27,7.55-3.02,15.53-.34,18.16,7.36,4.35,12.74,7.71,25.81,11.5,38.74.59,2.03,1.23,4.04,1.85,6.06.45.08.89.16,1.34.23,1.96-5.24,3.93-10.47,5.89-15.71.49.03.99.07,1.48.1Z"/>
  <path class="cls-1" d="M607.05,82.02c0-12.49.13-24.98-.07-37.46-.07-4.23,1.17-6.1,5.64-5.9,5.65.26,11.32.09,16.98-.04,3.45-.08,5.25,1.08,5.24,4.87-.06,25.81-.05,51.62.03,77.42,0,3.21-1.17,4.48-4.41,4.39-6.16-.18-12.33-.32-18.48-.04-4.11.19-5.16-1.54-5.13-5.28.13-12.65.05-25.31.05-37.96h.15Z"/>
  <path class="cls-1" d="M331.28,81.98c0,12.81-.1,25.63.06,38.44.05,3.63-.96,5.11-4.81,4.87-5.14-.33-10.31-.14-15.47-.15q-7.25-.01-7.23-7.5c.04-22.97.02-45.93.12-68.9.04-10.05-2.17-10.24,10.26-9.95,3.66.09,7.33.09,10.98-.19,4.45-.33,6.23,1.19,6.12,5.93-.28,12.48-.1,24.96-.1,37.44.03,0,.05,0,.08,0Z"/>
  <path class="cls-1" d="M69.23,71.29c-4.7-10.42-10.13-20.27-13.53-30.77-2.11-6.53.64-13.64,5.95-18.59,4.54-4.23,10.19-4.54,15.89-2.23,5.65,2.29,9.16,8.55,7.14,14.23-4.35,12.21-9.22,24.24-13.91,36.33-.09.24-.51.36-1.54,1.04Z"/>
  <path class="cls-1" d="M603.92,17.48c-.03-9.04,7.33-16.43,16.48-16.52,8.85-.09,15.71,6.52,15.76,15.17.06,9.18-7.21,16.79-16.15,16.91-8.83.11-16.06-6.87-16.09-15.56Z"/>
  <path class="cls-1" d="M301.46,17.39c0-9.39,7.17-16.66,16.35-16.57,8.72.08,15.66,6.92,15.72,15.49.06,8.88-7.75,16.74-16.55,16.65-8.75-.08-15.52-6.88-15.52-15.57Z"/>
  <path class="cls-2" d="M245.46,82.26c.03-8.7,6.4-15.06,15.15-15.11,8.5-.05,15.04,6.25,15.14,14.58.1,9.19-6.56,16.04-15.51,15.92-8.86-.12-14.8-6.32-14.77-15.39Z"/>
  <path class="cls-2" d="M159.9,75.75c.82-8.33,6.29-13.69,13.91-14.85,7.71-1.18,14.01,1.64,16.47,7.37,2.32,5.41,1.12,7.42-4.63,7.46-8.43.06-16.87.02-25.75.02Z"/>
  <path class="cls-2" d="M450.77,85.11c.02-13.66,9.66-23.24,23.36-23.2,13.83.03,24.19,10.34,24.05,23.93-.14,14.06-10.43,24.23-24.44,24.15-13.52-.08-22.98-10.32-22.96-24.87Z"/>
  <path class="cls-2" d="M466.15,39.64c1.04.67,3.76,1.48,4.13,2.89.38,1.46-1.08,4.28-2.54,5.17-7.24,4.39-14.68,8.47-22.25,12.27-1.17.59-3.7-.42-4.94-1.47-.73-.62-.75-3.65-.08-4.1,7.27-4.9,14.72-9.53,22.17-14.16.65-.4,1.61-.3,3.5-.61Z"/>
</svg>